<svg width="378" height="68" viewBox="0 0 378 68" fill="none" xmlns="http://www.w3.org/2000/svg">
<path d="M50.9209 49.4307C49.2119 49.4307 47.5029 49.1709 45.7939 48.6514C44.0986 48.1319 42.458 47.3252 40.8721 46.2315V40.4483H42.9229L43.2305 45.1035C44.4336 45.8555 45.6846 46.416 46.9834 46.7852C48.2822 47.1543 49.5947 47.3389 50.9209 47.3389C52.5068 47.3389 53.8809 47.0928 55.043 46.6006C56.2188 46.1221 57.1279 45.4522 57.7705 44.5909C58.4131 43.7159 58.7344 42.711 58.7344 41.5762C58.7344 40.4961 58.4746 39.5323 57.9551 38.6846C57.4219 37.8643 56.5605 37.1397 55.3711 36.5108C54.1953 35.8819 52.5957 35.3076 50.5723 34.7881C48.4121 34.2412 46.6416 33.585 45.2607 32.8194C42.5811 31.3565 41.2412 29.1895 41.2412 26.3184C41.2412 24.8145 41.6377 23.4951 42.4307 22.3604C43.2236 21.2256 44.3311 20.3369 45.7529 19.6944C47.1885 19.0381 48.8564 18.71 50.7568 18.71C52.7666 18.71 54.5576 19.0108 56.1299 19.6123C57.7158 20.2139 59.0557 20.9864 60.1494 21.9297V27.2617H58.1191L57.8115 23.0371C56.9502 22.3399 55.9316 21.793 54.7559 21.3965C53.5801 21 52.2471 20.8018 50.7568 20.8018C49.3076 20.8018 48.0498 21.041 46.9834 21.5196C44.7959 22.545 43.7021 24.1309 43.7021 26.2774C43.7021 27.2617 43.9277 28.1367 44.3789 28.9024C44.8301 29.6543 45.6094 30.3242 46.7168 30.9121C47.8242 31.5 49.376 32.0606 51.3721 32.5938C54.6123 33.4278 57.0596 34.5557 58.7139 35.9776C60.3682 37.3858 61.1953 39.2383 61.1953 41.5352C61.1953 43.1211 60.7646 44.502 59.9033 45.6778C59.0283 46.8672 57.8184 47.7901 56.2734 48.4463C54.7285 49.1026 52.9443 49.4307 50.9209 49.4307ZM71.7773 49.4307C69.6719 49.4307 68.0244 48.8701 66.835 47.7491C65.6455 46.628 65.0508 45.1104 65.0508 43.1963C65.0508 41.8291 65.4473 40.626 66.2402 39.5869C67.0332 38.5616 68.1543 37.7617 69.6035 37.1875C71.0664 36.6133 72.7959 36.3262 74.792 36.3262H79.3857V33.7832C79.3857 32.1836 78.9072 30.8985 77.9502 29.9278C77.0068 28.9434 75.5781 28.4512 73.6641 28.4512C72.584 28.4512 71.6133 28.6289 70.752 28.9844C69.9043 29.3262 69.166 29.7637 68.5371 30.2969L68.332 33.6807H66.3018V29.0459C67.2588 28.2256 68.3457 27.583 69.5625 27.1182C70.7793 26.6397 72.1602 26.4004 73.7051 26.4004C76.3164 26.4004 78.3262 27.0567 79.7344 28.3692C81.1426 29.6817 81.8467 31.5 81.8467 33.8242V44.5293C81.8467 44.9668 81.8604 45.4043 81.8877 45.8418C81.915 46.2657 81.9629 46.6895 82.0312 47.1133L84.6768 47.2159V49H79.8369C79.6729 48.1934 79.5566 47.544 79.4883 47.0518C79.4336 46.5596 79.3994 46.0059 79.3857 45.3907C78.5791 46.5801 77.5127 47.5508 76.1865 48.3028C74.8604 49.0547 73.3906 49.4307 71.7773 49.4307ZM72.0645 47.2774C73.582 47.2774 75.0176 46.8809 76.3711 46.0879C77.7383 45.2813 78.7432 44.2149 79.3857 42.8887V38.2129H74.7715C72.502 38.2129 70.7246 38.7051 69.4395 39.6895C68.1543 40.6602 67.5117 41.8565 67.5117 43.2784C67.5117 44.4678 67.9219 45.4317 68.7422 46.17C69.5625 46.9082 70.6699 47.2774 72.0645 47.2774ZM96.8789 47.2159V49H87.7324V47.2159L91.0752 46.9492V19.0791L87.7324 18.8125V17.0078H93.5361V46.9492L96.8789 47.2159ZM120.114 28.7588L112.26 49H110.045L101.985 28.7588L99.627 28.6153V26.8106H107.44V28.6153L104.528 28.7998L110.271 43.4424L111.091 45.8828H111.214L112.096 43.4424L117.653 28.7998L114.7 28.6153V26.8106H122.514V28.6153L120.114 28.7588ZM131.701 49.4307C129.596 49.4307 127.948 48.8701 126.759 47.7491C125.569 46.628 124.975 45.1104 124.975 43.1963C124.975 41.8291 125.371 40.626 126.164 39.5869C126.957 38.5616 128.078 37.7617 129.527 37.1875C130.99 36.6133 132.72 36.3262 134.716 36.3262H139.31V33.7832C139.31 32.1836 138.831 30.8985 137.874 29.9278C136.931 28.9434 135.502 28.4512 133.588 28.4512C132.508 28.4512 131.537 28.6289 130.676 28.9844C129.828 29.3262 129.09 29.7637 128.461 30.2969L128.256 33.6807H126.226V29.0459C127.183 28.2256 128.27 27.583 129.486 27.1182C130.703 26.6397 132.084 26.4004 133.629 26.4004C136.24 26.4004 138.25 27.0567 139.658 28.3692C141.066 29.6817 141.771 31.5 141.771 33.8242V44.5293C141.771 44.9668 141.784 45.4043 141.812 45.8418C141.839 46.2657 141.887 46.6895 141.955 47.1133L144.601 47.2159V49H139.761C139.597 48.1934 139.48 47.544 139.412 47.0518C139.357 46.5596 139.323 46.0059 139.31 45.3907C138.503 46.5801 137.437 47.5508 136.11 48.3028C134.784 49.0547 133.314 49.4307 131.701 49.4307ZM131.988 47.2774C133.506 47.2774 134.941 46.8809 136.295 46.0879C137.662 45.2813 138.667 44.2149 139.31 42.8887V38.2129H134.695C132.426 38.2129 130.648 38.7051 129.363 39.6895C128.078 40.6602 127.436 41.8565 127.436 43.2784C127.436 44.4678 127.846 45.4317 128.666 46.17C129.486 46.9082 130.594 47.2774 131.988 47.2774ZM156.495 49.4307C154.731 49.4307 153.214 48.9795 151.942 48.0772C149.331 46.2178 148.025 43.0323 148.025 38.5205V38.0899C148.025 35.6973 148.36 33.6397 149.03 31.917C149.7 30.167 150.671 28.8135 151.942 27.8565C153.228 26.8858 154.759 26.4004 156.536 26.4004C158.081 26.4004 159.421 26.7285 160.556 27.3848C161.704 28.041 162.647 28.9571 163.386 30.1328V19.0791L160.043 18.8125V17.0078H165.847V46.9492L169.189 47.2159V49H163.652L163.468 45.8623C162.743 46.9834 161.793 47.8584 160.617 48.4873C159.441 49.1162 158.067 49.4307 156.495 49.4307ZM156.946 47.3184C158.546 47.3184 159.879 46.9561 160.945 46.2315C162.012 45.5069 162.825 44.5225 163.386 43.2784V32.9219C162.853 31.6367 162.073 30.584 161.048 29.7637C160.022 28.9297 158.669 28.5127 156.987 28.5127C155.565 28.5127 154.369 28.916 153.398 29.7227C152.441 30.5293 151.717 31.6504 151.225 33.086C150.746 34.5215 150.507 36.1895 150.507 38.0899V38.5205C150.507 41.2002 151.04 43.3399 152.106 44.9395C153.187 46.5254 154.8 47.3184 156.946 47.3184ZM182.725 49.4307C180.715 49.4307 178.985 48.9522 177.536 47.9951C176.06 47.0518 174.911 45.7393 174.091 44.0576C173.284 42.3623 172.881 40.4278 172.881 38.2539V37.5772C172.881 35.4034 173.291 33.4756 174.111 31.794C174.918 30.1123 176.053 28.793 177.516 27.836C178.992 26.8789 180.715 26.4004 182.684 26.4004C184.68 26.4004 186.409 26.8789 187.872 27.836C189.335 28.793 190.47 30.1123 191.276 31.794C192.097 33.4619 192.507 35.3897 192.507 37.5772V38.2539C192.507 40.4278 192.104 42.3623 191.297 44.0576C190.477 45.7393 189.328 47.0586 187.852 48.0157C186.389 48.959 184.68 49.4307 182.725 49.4307ZM182.725 47.3799C184.242 47.3799 185.548 46.9766 186.642 46.17C187.735 45.3633 188.576 44.2696 189.164 42.8887C189.752 41.5078 190.046 39.9629 190.046 38.2539V37.5772C190.046 35.8545 189.752 34.3164 189.164 32.9629C188.576 31.5821 187.729 30.4883 186.621 29.6817C185.527 28.875 184.215 28.4717 182.684 28.4717C181.152 28.4717 179.84 28.875 178.746 29.6817C177.639 30.4883 176.791 31.5821 176.203 32.9629C175.629 34.3438 175.342 35.8819 175.342 37.5772V38.2539C175.342 39.9903 175.636 41.5352 176.224 42.8887C176.798 44.2559 177.632 45.3496 178.726 46.17C179.833 46.9766 181.166 47.3799 182.725 47.3799ZM205.222 47.2159V49H196.075V47.2159L199.418 46.9492V28.8819L196.075 28.6153V26.8106H201.571L201.838 30.1944L201.858 30.7891C202.487 29.4082 203.342 28.335 204.422 27.5694C205.502 26.7901 206.794 26.4004 208.298 26.4004C209.173 26.4004 209.87 26.4961 210.39 26.6875L210.082 28.9434L207.806 28.7998C206.233 28.7588 204.948 29.21 203.95 30.1534C202.952 31.0967 202.262 32.3477 201.879 33.9063V46.9492L205.222 47.2159Z" fill="#5174BD"/>
<path d="M222.305 47.2159V49H213.158V47.2159L216.501 46.9492V21.2119L213.158 20.9453V19.1407H222.305V20.9453L218.962 21.2119V46.9492L222.305 47.2159ZM234.691 47.2159V49H225.545V47.2159L228.888 46.9492V28.8819L225.545 28.6153V26.8106H231.062L231.267 30.7891C231.978 29.3946 232.935 28.3145 234.138 27.5489C235.341 26.7832 236.776 26.4004 238.444 26.4004C240.851 26.4004 242.683 27.1387 243.94 28.6153C245.198 30.0782 245.827 32.375 245.827 35.5059V46.9492L249.17 47.2159V49H240.023V47.2159L243.366 46.9492V35.5264C243.366 32.9561 242.895 31.1446 241.951 30.0918C241.008 29.0391 239.661 28.5127 237.911 28.5127C236.079 28.5127 234.63 29.0254 233.563 30.0508C232.497 31.0762 231.759 32.416 231.349 34.0703V46.9492L234.691 47.2159ZM261.536 49.4307C259.772 49.4307 258.255 48.9795 256.983 48.0772C254.372 46.2178 253.066 43.0323 253.066 38.5205V38.0899C253.066 35.6973 253.401 33.6397 254.071 31.917C254.741 30.167 255.712 28.8135 256.983 27.8565C258.269 26.8858 259.8 26.4004 261.577 26.4004C263.122 26.4004 264.462 26.7285 265.597 27.3848C266.745 28.041 267.688 28.9571 268.427 30.1328V19.0791L265.084 18.8125V17.0078H270.888V46.9492L274.23 47.2159V49H268.693L268.509 45.8623C267.784 46.9834 266.834 47.8584 265.658 48.4873C264.482 49.1162 263.108 49.4307 261.536 49.4307ZM261.987 47.3184C263.587 47.3184 264.92 46.9561 265.986 46.2315C267.053 45.5069 267.866 44.5225 268.427 43.2784V32.9219C267.894 31.6367 267.114 30.584 266.089 29.7637C265.063 28.9297 263.71 28.5127 262.028 28.5127C260.606 28.5127 259.41 28.916 258.439 29.7227C257.482 30.5293 256.758 31.6504 256.266 33.086C255.787 34.5215 255.548 36.1895 255.548 38.0899V38.5205C255.548 41.2002 256.081 43.3399 257.147 44.9395C258.228 46.5254 259.841 47.3184 261.987 47.3184ZM283.459 17.0078V20.5557H280.711V17.0078H283.459ZM286.802 47.2159V49H277.655V47.2159L280.998 46.9492V28.8819L277.655 28.6153V26.8106H283.459V46.9492L286.802 47.2159ZM297.568 49.4307C295.463 49.4307 293.815 48.8701 292.626 47.7491C291.437 46.628 290.842 45.1104 290.842 43.1963C290.842 41.8291 291.238 40.626 292.031 39.5869C292.824 38.5616 293.945 37.7617 295.395 37.1875C296.857 36.6133 298.587 36.3262 300.583 36.3262H305.177V33.7832C305.177 32.1836 304.698 30.8985 303.741 29.9278C302.798 28.9434 301.369 28.4512 299.455 28.4512C298.375 28.4512 297.404 28.6289 296.543 28.9844C295.695 29.3262 294.957 29.7637 294.328 30.2969L294.123 33.6807H292.093V29.0459C293.05 28.2256 294.137 27.583 295.354 27.1182C296.57 26.6397 297.951 26.4004 299.496 26.4004C302.107 26.4004 304.117 27.0567 305.525 28.3692C306.934 29.6817 307.638 31.5 307.638 33.8242V44.5293C307.638 44.9668 307.651 45.4043 307.679 45.8418C307.706 46.2657 307.754 46.6895 307.822 47.1133L310.468 47.2159V49H305.628C305.464 48.1934 305.348 47.544 305.279 47.0518C305.225 46.5596 305.19 46.0059 305.177 45.3907C304.37 46.5801 303.304 47.5508 301.978 48.3028C300.651 49.0547 299.182 49.4307 297.568 49.4307ZM297.855 47.2774C299.373 47.2774 300.809 46.8809 302.162 46.0879C303.529 45.2813 304.534 44.2149 305.177 42.8887V38.2129H300.562C298.293 38.2129 296.516 38.7051 295.23 39.6895C293.945 40.6602 293.303 41.8565 293.303 43.2784C293.303 44.4678 293.713 45.4317 294.533 46.17C295.354 46.9082 296.461 47.2774 297.855 47.2774ZM322.834 47.2159V49H313.688V47.2159L317.03 46.9492V28.8819L313.688 28.6153V26.8106H319.204L319.409 30.7891C320.12 29.3946 321.077 28.3145 322.28 27.5489C323.483 26.7832 324.919 26.4004 326.587 26.4004C328.993 26.4004 330.825 27.1387 332.083 28.6153C333.341 30.0782 333.97 32.375 333.97 35.5059V46.9492L337.312 47.2159V49H328.166V47.2159L331.509 46.9492V35.5264C331.509 32.9561 331.037 31.1446 330.094 30.0918C329.15 29.0391 327.804 28.5127 326.054 28.5127C324.222 28.5127 322.772 29.0254 321.706 30.0508C320.64 31.0762 319.901 32.416 319.491 34.0703V46.9492L322.834 47.2159Z" fill="#C07300"/>
<line x1="39" y1="3.50003" x2="210" y2="3.5" stroke="#F1A104" stroke-width="7"/>
<line x1="216" y1="3.50003" x2="339" y2="3.50001" stroke="#70CED0" stroke-width="7"/>
<line x1="39" y1="64.5" x2="210" y2="64.5" stroke="#25B396" stroke-width="7"/>
<line x1="216" y1="64.5" x2="339" y2="64.5" stroke="#70CED0" stroke-width="7"/>
</svg>
