<?xml version="1.0" encoding="UTF-8"?><svg id="Layer_2" xmlns="http://www.w3.org/2000/svg" viewBox="0 0 300 68"><defs><style>.cls-1{stroke:#f1a104;}.cls-1,.cls-2,.cls-3{fill:none;stroke-width:7px;}.cls-2{stroke:#70ced0;}.cls-3{stroke:#25b396;}.cls-4{fill:#c07300;}.cls-5{fill:#5174bd;}</style></defs><g id="Layer_1-2"><g><path class="cls-5" d="M11.92,49.43c-1.71,0-3.42-.26-5.13-.78-1.7-.52-3.34-1.33-4.92-2.42v-5.78H3.92l.31,4.66c1.2,.75,2.45,1.31,3.75,1.68,1.3,.37,2.61,.55,3.94,.55,1.59,0,2.96-.25,4.12-.74,1.18-.48,2.08-1.15,2.73-2.01,.64-.88,.96-1.88,.96-3.01s-.26-2.04-.78-2.89c-.53-.82-1.39-1.54-2.58-2.17-1.18-.63-2.78-1.2-4.8-1.72-2.16-.55-3.93-1.2-5.31-1.97-2.68-1.46-4.02-3.63-4.02-6.5,0-1.5,.4-2.82,1.19-3.96,.79-1.13,1.9-2.02,3.32-2.67,1.44-.66,3.1-.98,5-.98,2.01,0,3.8,.3,5.37,.9,1.59,.6,2.93,1.37,4.02,2.32v5.33h-2.03l-.31-4.22c-.86-.7-1.88-1.24-3.06-1.64-1.18-.4-2.51-.59-4-.59s-2.71,.24-3.77,.72c-2.19,1.03-3.28,2.61-3.28,4.76,0,.98,.23,1.86,.68,2.62,.45,.75,1.23,1.42,2.34,2.01s2.66,1.15,4.66,1.68c3.24,.83,5.69,1.96,7.34,3.38,1.65,1.41,2.48,3.26,2.48,5.56,0,1.59-.43,2.97-1.29,4.14-.88,1.19-2.08,2.11-3.63,2.77-1.54,.66-3.33,.98-5.35,.98Zm20.86,0c-2.11,0-3.75-.56-4.94-1.68-1.19-1.12-1.78-2.64-1.78-4.55,0-1.37,.4-2.57,1.19-3.61,.79-1.03,1.91-1.83,3.36-2.4,1.46-.57,3.19-.86,5.19-.86h4.59v-2.54c0-1.6-.48-2.88-1.44-3.86-.94-.98-2.37-1.48-4.29-1.48-1.08,0-2.05,.18-2.91,.53-.85,.34-1.59,.78-2.21,1.31l-.21,3.38h-2.03v-4.63c.96-.82,2.04-1.46,3.26-1.93,1.22-.48,2.6-.72,4.14-.72,2.61,0,4.62,.66,6.03,1.97,1.41,1.31,2.11,3.13,2.11,5.45v10.71c0,.44,.01,.88,.04,1.31,.03,.42,.08,.85,.14,1.27l2.65,.1v1.78h-4.84c-.16-.81-.28-1.46-.35-1.95-.05-.49-.09-1.05-.1-1.66-.81,1.19-1.87,2.16-3.2,2.91-1.33,.75-2.8,1.13-4.41,1.13Zm.29-2.15c1.52,0,2.95-.4,4.31-1.19,1.37-.81,2.37-1.87,3.01-3.2v-4.68h-4.61c-2.27,0-4.05,.49-5.33,1.48-1.29,.97-1.93,2.17-1.93,3.59,0,1.19,.41,2.15,1.23,2.89,.82,.74,1.93,1.11,3.32,1.11Zm24.81-.06v1.78h-9.15v-1.78l3.34-.27V19.08l-3.34-.27v-1.8h5.8v29.94l3.34,.27Zm23.24-18.46l-7.85,20.24h-2.22l-8.06-20.24-2.36-.14v-1.8h7.81v1.8l-2.91,.18,5.74,14.64,.82,2.44h.12l.88-2.44,5.56-14.64-2.95-.18v-1.8h7.81v1.8l-2.4,.14Zm11.59,20.67c-2.11,0-3.75-.56-4.94-1.68-1.19-1.12-1.78-2.64-1.78-4.55,0-1.37,.4-2.57,1.19-3.61,.79-1.03,1.91-1.83,3.36-2.4,1.46-.57,3.19-.86,5.19-.86h4.59v-2.54c0-1.6-.48-2.88-1.44-3.86-.94-.98-2.37-1.48-4.29-1.48-1.08,0-2.05,.18-2.91,.53-.85,.34-1.59,.78-2.21,1.31l-.21,3.38h-2.03v-4.63c.96-.82,2.04-1.46,3.26-1.93,1.22-.48,2.6-.72,4.14-.72,2.61,0,4.62,.66,6.03,1.97,1.41,1.31,2.11,3.13,2.11,5.45v10.71c0,.44,.01,.88,.04,1.31,.03,.42,.07,.85,.14,1.27l2.65,.1v1.78h-4.84c-.16-.81-.28-1.46-.35-1.95-.06-.49-.09-1.05-.1-1.66-.81,1.19-1.87,2.16-3.2,2.91-1.33,.75-2.8,1.13-4.41,1.13Zm.29-2.15c1.52,0,2.95-.4,4.31-1.19,1.37-.81,2.37-1.87,3.01-3.2v-4.68h-4.61c-2.27,0-4.05,.49-5.33,1.48-1.29,.97-1.93,2.17-1.93,3.59,0,1.19,.41,2.15,1.23,2.89,.82,.74,1.93,1.11,3.32,1.11Zm24.51,2.15c-1.76,0-3.28-.45-4.55-1.35-2.61-1.86-3.92-5.04-3.92-9.56v-.43c0-2.39,.34-4.45,1.01-6.17,.67-1.75,1.64-3.1,2.91-4.06,1.29-.97,2.82-1.46,4.59-1.46,1.54,0,2.89,.33,4.02,.98,1.15,.66,2.09,1.57,2.83,2.75v-11.05l-3.34-.27v-1.8h5.8v29.94l3.34,.27v1.78h-5.54l-.18-3.14c-.73,1.12-1.68,2-2.85,2.62-1.18,.63-2.55,.94-4.12,.94Zm.45-2.11c1.6,0,2.93-.36,4-1.09,1.07-.72,1.88-1.71,2.44-2.95v-10.36c-.53-1.29-1.31-2.34-2.34-3.16-1.03-.83-2.38-1.25-4.06-1.25-1.42,0-2.62,.4-3.59,1.21-.96,.81-1.68,1.93-2.17,3.36-.48,1.44-.72,3.1-.72,5v.43c0,2.68,.53,4.82,1.6,6.42,1.08,1.59,2.69,2.38,4.84,2.38Zm25.78,2.11c-2.01,0-3.74-.48-5.19-1.44-1.48-.94-2.62-2.26-3.44-3.94-.81-1.7-1.21-3.63-1.21-5.8v-.68c0-2.17,.41-4.1,1.23-5.78,.81-1.68,1.94-3,3.41-3.96,1.48-.96,3.2-1.44,5.17-1.44s3.72,.48,5.19,1.44c1.46,.96,2.6,2.28,3.4,3.96,.82,1.67,1.23,3.6,1.23,5.78v.68c0,2.17-.4,4.11-1.21,5.8-.82,1.68-1.97,3-3.44,3.96-1.46,.94-3.17,1.41-5.13,1.41Zm0-2.05c1.52,0,2.82-.4,3.92-1.21,1.09-.81,1.93-1.9,2.52-3.28,.59-1.38,.88-2.93,.88-4.63v-.68c0-1.72-.29-3.26-.88-4.61-.59-1.38-1.43-2.47-2.54-3.28-1.09-.81-2.41-1.21-3.94-1.21s-2.84,.4-3.94,1.21c-1.11,.81-1.96,1.9-2.54,3.28-.57,1.38-.86,2.92-.86,4.61v.68c0,1.74,.29,3.28,.88,4.63,.57,1.37,1.41,2.46,2.5,3.28,1.11,.81,2.44,1.21,4,1.21Zm22.5-.16v1.78h-9.15v-1.78l3.34-.27V28.88l-3.34-.27v-1.8h5.5l.27,3.38,.02,.59c.63-1.38,1.48-2.45,2.56-3.22,1.08-.78,2.37-1.17,3.88-1.17,.88,0,1.57,.1,2.09,.29l-.31,2.26-2.28-.14c-1.57-.04-2.86,.41-3.86,1.35-1,.94-1.69,2.19-2.07,3.75v13.04l3.34,.27Z"/><path class="cls-4" d="M183.3,47.22v1.78h-9.15v-1.78l3.34-.27V21.21l-3.34-.27v-1.8h9.15v1.8l-3.34,.27v25.74l3.34,.27Zm12.39,0v1.78h-9.15v-1.78l3.34-.27V28.88l-3.34-.27v-1.8h5.52l.21,3.98c.71-1.39,1.67-2.47,2.87-3.24,1.2-.77,2.64-1.15,4.31-1.15,2.41,0,4.24,.74,5.5,2.21,1.26,1.46,1.89,3.76,1.89,6.89v11.44l3.34,.27v1.78h-9.15v-1.78l3.34-.27v-11.42c0-2.57-.47-4.38-1.41-5.43-.94-1.05-2.29-1.58-4.04-1.58s-3.28,.51-4.35,1.54c-1.07,1.03-1.8,2.37-2.21,4.02v12.88l3.34,.27Zm26.85,2.21c-1.76,0-3.28-.45-4.55-1.35-2.61-1.86-3.92-5.04-3.92-9.56v-.43c0-2.39,.34-4.45,1.01-6.17,.67-1.75,1.64-3.1,2.91-4.06,1.29-.97,2.82-1.46,4.59-1.46,1.55,0,2.89,.33,4.02,.98,1.15,.66,2.09,1.57,2.83,2.75v-11.05l-3.34-.27v-1.8h5.8v29.94l3.34,.27v1.78h-5.54l-.18-3.14c-.73,1.12-1.67,2-2.85,2.62-1.18,.63-2.55,.94-4.12,.94Zm.45-2.11c1.6,0,2.93-.36,4-1.09,1.07-.72,1.88-1.71,2.44-2.95v-10.36c-.53-1.29-1.31-2.34-2.34-3.16-1.03-.83-2.38-1.25-4.06-1.25-1.42,0-2.62,.4-3.59,1.21-.96,.81-1.68,1.93-2.17,3.36-.48,1.44-.72,3.1-.72,5v.43c0,2.68,.53,4.82,1.6,6.42,1.08,1.59,2.69,2.38,4.84,2.38Zm21.47-30.31v3.55h-2.75v-3.55h2.75Zm3.34,30.21v1.78h-9.15v-1.78l3.34-.27V28.88l-3.34-.27v-1.8h5.8v20.14l3.34,.27Zm10.77,2.21c-2.1,0-3.75-.56-4.94-1.68-1.19-1.12-1.78-2.64-1.78-4.55,0-1.37,.4-2.57,1.19-3.61,.79-1.03,1.91-1.83,3.36-2.4,1.46-.57,3.19-.86,5.19-.86h4.59v-2.54c0-1.6-.48-2.88-1.44-3.86-.94-.98-2.37-1.48-4.29-1.48-1.08,0-2.05,.18-2.91,.53-.85,.34-1.59,.78-2.21,1.31l-.21,3.38h-2.03v-4.63c.96-.82,2.04-1.46,3.26-1.93,1.22-.48,2.6-.72,4.14-.72,2.61,0,4.62,.66,6.03,1.97,1.41,1.31,2.11,3.13,2.11,5.45v10.71c0,.44,.01,.88,.04,1.31,.03,.42,.08,.85,.14,1.27l2.65,.1v1.78h-4.84c-.16-.81-.28-1.46-.35-1.95-.05-.49-.09-1.05-.1-1.66-.81,1.19-1.87,2.16-3.2,2.91-1.33,.75-2.8,1.13-4.41,1.13Zm.29-2.15c1.52,0,2.95-.4,4.31-1.19,1.37-.81,2.37-1.87,3.02-3.2v-4.68h-4.61c-2.27,0-4.05,.49-5.33,1.48-1.29,.97-1.93,2.17-1.93,3.59,0,1.19,.41,2.15,1.23,2.89,.82,.74,1.93,1.11,3.32,1.11Zm24.98-.06v1.78h-9.15v-1.78l3.34-.27V28.88l-3.34-.27v-1.8h5.52l.2,3.98c.71-1.39,1.67-2.47,2.87-3.24,1.2-.77,2.64-1.15,4.31-1.15,2.41,0,4.24,.74,5.5,2.21,1.26,1.46,1.89,3.76,1.89,6.89v11.44l3.34,.27v1.78h-9.15v-1.78l3.34-.27v-11.42c0-2.57-.47-4.38-1.42-5.43-.94-1.05-2.29-1.58-4.04-1.58s-3.28,.51-4.35,1.54c-1.07,1.03-1.8,2.37-2.21,4.02v12.88l3.34,.27Z"/><line class="cls-1" x1="0" y1="3.5" x2="171" y2="3.5"/><line class="cls-2" x1="177" y1="3.5" x2="300" y2="3.5"/><line class="cls-3" x1="0" y1="64.5" x2="171" y2="64.5"/><line class="cls-2" x1="177" y1="64.5" x2="300" y2="64.5"/></g></g></svg>